<svg version="1.1" id="Layer_1" xmlns="http://www.w3.org/2000/svg" xmlns:xlink="http://www.w3.org/1999/xlink" x="0px" y="0px"
	 width="100%" viewBox="0 0 500 500" enable-background="new 0 0 500 500" xml:space="preserve">
<!-- Transparent background; only white figure paths -->
<path fill="#FEFEFE" opacity="1.000000" stroke="none" 
	d="
M250.000168,47.775749 
	C334.469086,49.611633 397.080231,87.620697 433.935852,162.622955 
	C466.423065,228.735291 462.303558,295.768890 423.494202,358.649597 
	C388.400055,415.510742 336.009308,447.562469 269.465881,453.532898 
	C157.420425,463.585846 67.504036,385.618225 51.008190,287.494904 
	C38.085365,210.625183 61.605164,145.503647 120.841446,94.590134 
	C157.519791,63.065136 201.007492,47.976768 250.000168,47.775749 
M297.714355,113.837250 
	C261.156158,101.794624 225.264267,103.620293 190.176239,119.354012 
	C166.369370,130.029175 147.210876,146.487885 132.374939,167.841660 
	C108.302559,202.489731 100.598503,240.727036 109.390800,281.882690 
	C117.233391,318.592957 137.023331,347.827301 167.699875,369.498108 
	C201.768600,393.565308 239.554688,400.861328 280.236359,393.088928 
	C308.483154,387.692261 332.601837,373.945831 353.017731,353.935547 
	C374.798676,332.587372 388.491119,306.657806 393.699097,276.603088 
	C400.101135,239.657455 393.545929,205.007034 373.250763,173.311737 
	C355.153015,145.048203 330.422028,124.946487 297.714355,113.837250 
z"/>
<path fill="#FDFDFD" opacity="1.000000" stroke="none" 
	d="
M232.190765,248.930801 
	C232.310242,239.167969 236.179932,231.865891 243.829697,226.471924 
	C266.816498,210.263535 289.703125,193.912399 312.750397,177.790741 
	C323.845673,170.029572 339.709015,173.349640 348.159180,184.830475 
	C356.308197,195.902039 354.887451,212.703323 344.240326,220.441940 
	C320.415771,237.758331 296.499329,254.978973 272.073883,271.427216 
	C255.604248,282.517975 234.062088,270.163849 232.190765,248.930801 
z"/>
</svg>
